<?xml version="1.0" standalone="no"?>
<!DOCTYPE svg PUBLIC "-//W3C//DTD SVG 20010904//EN"
 "http://www.w3.org/TR/2001/REC-SVG-20010904/DTD/svg10.dtd">
<svg version="1.0" xmlns="http://www.w3.org/2000/svg"
 width="71.000000pt" height="71.000000pt" viewBox="0 0 71.000000 71.000000"
 preserveAspectRatio="xMidYMid meet">
<metadata>
Created by potrace 1.14, written by Peter Selinger 2001-2017
</metadata>
<g transform="translate(0.000000,71.000000) scale(0.100000,-0.100000)"
fill="#000000" stroke="none">
<path d="M291 666 c0 -12 3 -16 5 -9 3 7 12 9 20 6 9 -3 12 0 9 9 -9 22 -35
18 -34 -6z"/>
<path d="M350 675 c0 -8 7 -15 15 -15 8 0 15 7 15 15 0 8 -7 15 -15 15 -8 0
-15 -7 -15 -15z"/>
<path d="M261 654 c0 -11 3 -14 6 -6 3 7 2 16 -1 19 -3 4 -6 -2 -5 -13z"/>
<path d="M210 650 c-12 -7 -12 -12 -2 -22 9 -9 12 -9 12 1 0 7 5 9 10 6 6 -3
10 -2 10 4 0 15 -14 21 -30 11z"/>
<path d="M150 617 c0 -19 10 -27 26 -20 11 4 12 9 3 19 -15 18 -29 18 -29 1z"/>
<path d="M111 586 c-9 -10 -9 -16 -1 -21 17 -10 37 12 24 25 -8 8 -15 6 -23
-4z"/>
<path d="M74 539 c-10 -17 13 -36 27 -22 12 12 4 33 -11 33 -5 0 -12 -5 -16
-11z"/>
<path d="M250 468 c0 -9 6 -21 14 -27 18 -15 38 -71 26 -71 -4 0 -10 6 -13 13
-2 6 -11 -2 -20 -20 -12 -23 -15 -42 -9 -68 4 -20 11 -35 15 -33 5 2 14 -8 21
-21 10 -17 15 -20 21 -11 15 25 22 80 15 119 l-7 40 27 -22 c22 -18 27 -28 22
-51 -4 -21 0 -33 13 -42 24 -18 55 -1 55 31 0 22 5 25 34 25 19 0 38 5 41 10
9 15 -40 30 -103 31 l-57 1 41 14 c26 9 45 24 53 41 6 14 10 27 8 29 -2 2 -30
-10 -63 -27 l-59 -31 -37 42 c-22 24 -38 36 -38 28z m52 -171 c8 -21 8 -31 -2
-40 -10 -10 -11 -7 -5 12 5 16 4 21 -4 17 -7 -5 -11 7 -10 36 1 24 3 34 6 23
2 -11 9 -33 15 -48z m107 24 c17 -11 7 -41 -13 -41 -19 0 -29 17 -22 35 6 17
15 18 35 6z"/>
<path d="M36 451 c-3 -5 0 -11 8 -14 8 -3 17 1 20 9 6 15 -19 20 -28 5z"/>
<path d="M32 403 c-6 -2 -10 -9 -6 -14 8 -14 21 -11 28 6 6 15 1 17 -22 8z"/>
<path d="M644 399 c-10 -17 13 -36 27 -22 12 12 4 33 -11 33 -5 0 -12 -5 -16
-11z"/>
<path d="M20 346 c0 -17 14 -29 23 -20 8 8 -3 34 -14 34 -5 0 -9 -6 -9 -14z"/>
<path d="M655 340 c4 -6 11 -8 16 -5 14 9 11 15 -7 15 -8 0 -12 -5 -9 -10z"/>
<path d="M645 320 c-4 -6 3 -10 14 -10 25 0 27 6 6 13 -8 4 -17 2 -20 -3z"/>
<path d="M640 286 c0 -2 7 -7 16 -10 8 -3 12 -2 9 4 -6 10 -25 14 -25 6z"/>
<path d="M635 251 c3 -5 0 -13 -6 -17 -8 -4 -7 -9 2 -15 8 -5 17 -3 21 4 11
18 10 24 -8 31 -8 3 -12 2 -9 -3z"/>
<path d="M591 186 c-9 -11 -8 -15 5 -20 19 -7 34 0 34 17 0 7 -4 6 -10 -3 -9
-13 -14 -7 -11 13 2 11 -5 8 -18 -7z"/>
<path d="M546 141 c-10 -16 18 -30 31 -16 6 7 9 16 6 19 -9 9 -31 7 -37 -3z"/>
<path d="M500 96 c0 -8 4 -17 8 -20 13 -8 35 11 28 23 -10 16 -36 14 -36 -3z"/>
<path d="M423 72 c-13 -8 -5 -26 13 -29 7 -1 10 6 7 17 -3 11 -6 20 -7 20 0 0
-6 -4 -13 -8z"/>
<path d="M300 55 c0 -9 6 -12 15 -9 8 4 15 10 15 15 0 5 -7 9 -15 9 -8 0 -15
-7 -15 -15z"/>
<path d="M358 52 c-4 -12 1 -18 13 -18 22 0 24 9 5 25 -11 9 -15 7 -18 -7z"/>
</g>
</svg>
