<svg width="46" height="46" viewBox="0 0 46 46" fill="none" xmlns="http://www.w3.org/2000/svg">
<path d="M35.5 0.5H10.5C4.9775 0.5 0.5 4.9775 0.5 10.5V35.5C0.5 41.0225 4.9775 45.5 10.5 45.5H24.5525V28.0975H18.695V21.285H24.5525V16.2725C24.5525 10.4625 28.105 7.295 33.29 7.295C35.0375 7.29 36.7825 7.38 38.52 7.5575V13.6325H34.95C32.125 13.6325 31.575 14.9675 31.575 16.9375V21.275H38.325L37.4475 28.0875H31.535V45.5H35.5C41.0225 45.5 45.5 41.0225 45.5 35.5V10.5C45.5 4.9775 41.0225 0.5 35.5 0.5Z" fill="black"/>
</svg>
