<svg width="46" height="46" viewBox="0 0 46 46" fill="none" xmlns="http://www.w3.org/2000/svg">
<path d="M13 0.5C6.0975 0.5 0.5 6.0975 0.5 13V33C0.5 39.9025 6.0975 45.5 13 45.5H33C39.9025 45.5 45.5 39.9025 45.5 33V13C45.5 6.0975 39.9025 0.5 33 0.5H13ZM38 5.5C39.38 5.5 40.5 6.62 40.5 8C40.5 9.38 39.38 10.5 38 10.5C36.62 10.5 35.5 9.38 35.5 8C35.5 6.62 36.62 5.5 38 5.5ZM23 10.5C29.9025 10.5 35.5 16.0975 35.5 23C35.5 29.9025 29.9025 35.5 23 35.5C16.0975 35.5 10.5 29.9025 10.5 23C10.5 16.0975 16.0975 10.5 23 10.5ZM23 15.5C21.0109 15.5 19.1032 16.2902 17.6967 17.6967C16.2902 19.1032 15.5 21.0109 15.5 23C15.5 24.9891 16.2902 26.8968 17.6967 28.3033C19.1032 29.7098 21.0109 30.5 23 30.5C24.9891 30.5 26.8968 29.7098 28.3033 28.3033C29.7098 26.8968 30.5 24.9891 30.5 23C30.5 21.0109 29.7098 19.1032 28.3033 17.6967C26.8968 16.2902 24.9891 15.5 23 15.5Z" fill="black"/>
</svg>
